<mxfile host="app.diagrams.net" modified="2024-02-01T00:28:51.386Z" agent="Mozilla/5.0 (Windows NT 10.0; Win64; x64) AppleWebKit/537.36 (KHTML, like Gecko) Chrome/121.0.0.0 Safari/537.36" version="23.0.2" etag="XpOHnzZLY9L-N1V_Dgqf" type="github">
  <diagram name="Page-1" id="77YhkAcIzyKtpKA2OWp2">
    <mxGraphModel>
      <root>
        <mxCell id="0" />
        <mxCell id="1" parent="0" />
      </root>
    </mxGraphModel>
  </diagram>
</mxfile>
